# xmcd CD database file
#
# Track frame offsets:
#	150
#	15300
#	34025
#	48487
#	64430
#	80942
#	96607
#	117165
#	131355
#	149910
#	168012
#	184834
#	198532
#	225445
#	241832
#
# Disc length: 3447 seconds
#
# Revision: 0
# Processed by: cddbd v1.5.1PL0 Copyright (c) Steve Scherf et al.
# Submitted via: CDex 1.51
#
DISCID=d30d750f
DTITLE=Bernard Primeu Montréal Jazz ensemble - Noel enJazz
DYEAR=2004
DGENRE=Jazz
TTITLE0=Jingle Bells
TTITLE1=Je reviendrai à Montréal
TTITLE2=Let it's snow
TTITLE3=O Tannenbaum
TTITLE4=Winter wonderland
TTITLE5=Greensleeves
TTITLE6=White Christmas
TTITLE7=Rudolph, The red nose reindeer
TTITLE8=Marie-Noel
TTITLE9=Sleigh Ride
TTITLE10=I'll be home for Christmas
TTITLE11=Santa Claus is coming to town
TTITLE12=The Christmas song
TTITLE13=Silent night
TTITLE14=Minuit, Chrétien
EXTD=YEAR: 2004
EXTT0=
EXTT1=
EXTT2=
EXTT3=
EXTT4=
EXTT5=
EXTT6=
EXTT7=
EXTT8=
EXTT9=
EXTT10=
EXTT11=
EXTT12=
EXTT13=
EXTT14=
PLAYORDER=
